<svg width="40" height="40" viewBox="0 0 40 40" fill="none" xmlns="http://www.w3.org/2000/svg">
  <defs>
    <linearGradient id="reformGrad" x1="0%" y1="0%" x2="100%" y2="100%">
      <stop offset="0%" stopColor="#3b82f6" />
      <stop offset="50%" stopColor="#2563eb" />
      <stop offset="100%" stopColor="#1d4ed8" />
    </linearGradient>
  </defs>
  <rect x="2" y="2" width="36" height="36" rx="10" fill="url(#reformGrad)" stroke="rgba(255,255,255,0.2)" stroke-width="1.5" />
  <path d="M2 14 H9 L13 18 H20" stroke="rgba(255,255,255,0.4)" stroke-width="1.2" stroke-linecap="round" />
  <circle cx="20" cy="18" r="1.5" fill="#93c5fd" />
  <path d="M38 26 H31 L27 22 H20" stroke="rgba(255,255,255,0.4)" stroke-width="1.2" stroke-linecap="round" />
  <circle cx="20" cy="22" r="1.5" fill="#93c5fd" />
  <path d="M14 11 H23 C26.3 11 28.5 13.2 28.5 16.5 C28.5 19.5 26.5 21.5 23.5 21.8 L29 29 H24.2 L19.2 22.5 H17.8 V29 H14 V11 Z M17.8 19 H22.8 C24.4 19 25.2 18 25.2 16.5 C25.2 15 24.4 14 22.8 14 H17.8 V19 Z" fill="#ffffff" />
</svg>
